<?xml version="1.0" standalone="no"?>
<!DOCTYPE svg PUBLIC "-//W3C//DTD SVG 20010904//EN"
 "http://www.w3.org/TR/2001/REC-SVG-20010904/DTD/svg10.dtd">
<svg version="1.0" xmlns="http://www.w3.org/2000/svg"
 width="100.000000pt" height="100.000000pt" viewBox="0 0 100.000000 100.000000"
 preserveAspectRatio="xMidYMid meet">
<metadata>
Created by potrace 1.11, written by Peter Selinger 2001-2013
</metadata>
<g transform="translate(0.000000,100.000000) scale(0.100000,-0.100000)"
fill="#000000" stroke="none">
<path d="M111 986 c-50 -28 -50 -32 -51 -478 0 -242 4 -427 10 -442 21 -56 25
-57 424 -57 395 -1 398 0 427 53 16 29 15 858 -1 888 -26 48 -45 50 -427 50
-278 -1 -363 -4 -382 -14z m763 -45 c15 -17 17 -57 16 -437 0 -396 -1 -419
-19 -437 -18 -18 -39 -19 -375 -19 -327 0 -359 1 -376 17 -19 17 -20 34 -20
441 l0 423 22 15 c19 14 72 16 379 16 335 0 357 -1 373 -19z"/>
<path d="M606 864 c-12 -12 -13 -20 -5 -35 16 -31 40 -35 60 -10 34 41 -17 83
-55 45z"/>
<path d="M741 858 c-11 -29 -4 -46 21 -54 29 -9 52 18 44 50 -8 34 -53 37 -65
4z"/>
<path d="M383 716 c-132 -63 -194 -205 -147 -342 20 -60 46 -95 98 -132 147
-104 345 -50 418 115 41 93 16 226 -56 297 -57 58 -108 80 -191 84 -58 2 -79
-1 -122 -22z m188 -28 c52 -15 112 -68 137 -120 11 -24 18 -46 16 -50 -2 -3
-22 -4 -43 -1 -24 3 -60 -2 -92 -12 -67 -22 -118 -22 -189 3 -41 14 -65 16
-94 10 -21 -5 -41 -7 -42 -5 -2 2 8 27 22 55 54 108 167 156 285 120z m-116
-238 c36 -8 58 -6 148 17 49 12 74 14 95 7 24 -9 27 -15 26 -52 -2 -83 -92
-173 -190 -190 -104 -18 -196 30 -246 128 -37 71 -36 94 4 113 28 13 36 13 82
0 28 -9 65 -19 81 -23z"/>
</g>
</svg>
